<svg width="127" height="36" viewBox="0 0 127 36" fill="none" xmlns="http://www.w3.org/2000/svg">
<path d="M12 8C13.3132 8 14.6136 8.25866 15.8268 8.7612C17.0401 9.26375 18.1425 10.0003 19.0711 10.9289C19.9997 11.8575 20.7362 12.9599 21.2388 14.1732C21.7413 15.3864 22 16.6868 22 18C22 20.6522 20.9464 23.1957 19.0711 25.0711C17.1957 26.9464 14.6522 28 12 28C10.6868 28 9.38642 27.7413 8.17317 27.2388C6.95991 26.7362 5.85752 25.9997 4.92893 25.0711C3.05357 23.1957 2 20.6522 2 18C2 15.3478 3.05357 12.8043 4.92893 10.9289C6.8043 9.05357 9.34784 8 12 8ZM12 10C11.337 10 10.7011 10.2634 10.2322 10.7322C9.76339 11.2011 9.5 11.837 9.5 12.5C9.5 13.163 9.76339 13.7989 10.2322 14.2678C10.7011 14.7366 11.337 15 12 15C12.663 15 13.2989 14.7366 13.7678 14.2678C14.2366 13.7989 14.5 13.163 14.5 12.5C14.5 11.837 14.2366 11.2011 13.7678 10.7322C13.2989 10.2634 12.663 10 12 10ZM4.4 15.53C4.19494 16.1599 4.24827 16.8454 4.54826 17.436C4.84825 18.0267 5.37039 18.4741 6 18.68C7.32 19.1 8.73 18.39 9.15 17.07C9.35506 16.4401 9.30173 15.7546 9.00174 15.164C8.70175 14.5733 8.17961 14.1259 7.55 13.92C6.24 13.5 4.82 14.21 4.4 15.53ZM19.61 15.5C19.18 14.21 17.77 13.5 16.46 13.92C16.1465 14.0197 15.8559 14.1805 15.6049 14.3932C15.354 14.6059 15.1477 14.8663 14.998 15.1592C14.8483 15.4521 14.7581 15.7718 14.7327 16.0998C14.7073 16.4278 14.7472 16.7575 14.85 17.07C15.0559 17.6996 15.5033 18.2217 16.094 18.5217C16.6846 18.8217 17.3701 18.8751 18 18.67C19.31 18.25 20.03 16.83 19.61 15.5ZM7.31 24.46C8.42 25.28 10 25.03 10.8 23.91C11.61 22.79 11.36 21.23 10.24 20.42C9.70357 20.0322 9.03547 19.8723 8.38159 19.9753C7.7277 20.0784 7.14115 20.436 6.75 20.97C5.94 22.09 6.19 23.65 7.31 24.46ZM16.7 24.46C17.82 23.65 18.07 22.09 17.26 20.97C17.0678 20.7036 16.8248 20.4779 16.545 20.306C16.2651 20.134 15.954 20.0191 15.6296 19.968C15.3051 19.9168 14.9738 19.9305 14.6546 20.008C14.3354 20.0856 14.0348 20.2256 13.77 20.42C13.5038 20.6122 13.2782 20.855 13.1059 21.1345C12.9337 21.414 12.8182 21.7247 12.7662 22.0489C12.7142 22.373 12.7266 22.7043 12.8028 23.0236C12.8789 23.343 13.0173 23.6442 13.21 23.91C14 25.03 15.59 25.27 16.7 24.46ZM12 16.5C11.6022 16.5 11.2206 16.658 10.9393 16.9393C10.658 17.2206 10.5 17.6022 10.5 18C10.5 18.3978 10.658 18.7794 10.9393 19.0607C11.2206 19.342 11.6022 19.5 12 19.5C12.3978 19.5 12.7794 19.342 13.0607 19.0607C13.342 18.7794 13.5 18.3978 13.5 18C13.5 17.6022 13.342 17.2206 13.0607 16.9393C12.7794 16.658 12.3978 16.5 12 16.5Z" fill="#FF9800"/>
<path d="M29.0168 23V13.158H30.3608L34.3508 19.542H33.5808L37.5568 13.158H38.9008V23H37.0108V16.42L37.3748 16.532L34.6028 20.984H33.3148L30.5428 16.532L30.9208 16.42V23H29.0168ZM46.7673 23.154C46.0487 23.154 45.3767 23.0233 44.7513 22.762C44.1353 22.5007 43.594 22.1413 43.1273 21.684C42.67 21.2173 42.3107 20.676 42.0493 20.06C41.788 19.4347 41.6573 18.7673 41.6573 18.058C41.6573 17.3487 41.7833 16.6907 42.0353 16.084C42.2967 15.468 42.656 14.9313 43.1133 14.474C43.58 14.0073 44.1213 13.648 44.7373 13.396C45.3533 13.1347 46.0207 13.004 46.7393 13.004C47.4673 13.004 48.1393 13.1347 48.7553 13.396C49.3713 13.648 49.908 14.0073 50.3653 14.474C50.832 14.9313 51.196 15.468 51.4573 16.084C51.7187 16.7 51.8493 17.3627 51.8493 18.072C51.8493 18.7813 51.7187 19.444 51.4573 20.06C51.196 20.676 50.832 21.2173 50.3653 21.684C49.908 22.1413 49.3713 22.5007 48.7553 22.762C48.1487 23.0233 47.486 23.154 46.7673 23.154ZM46.7393 21.376C47.374 21.376 47.9247 21.236 48.3913 20.956C48.858 20.676 49.222 20.2887 49.4833 19.794C49.754 19.2993 49.8893 18.7207 49.8893 18.058C49.8893 17.5727 49.8147 17.1293 49.6653 16.728C49.516 16.3267 49.3013 15.9813 49.0213 15.692C48.7413 15.3933 48.41 15.1647 48.0273 15.006C47.6447 14.8473 47.2153 14.768 46.7393 14.768C46.1233 14.768 45.5773 14.908 45.1013 15.188C44.6347 15.4587 44.266 15.8413 43.9953 16.336C43.734 16.8307 43.6033 17.4047 43.6033 18.058C43.6033 18.5527 43.678 19.0053 43.8273 19.416C43.986 19.8267 44.2007 20.1767 44.4713 20.466C44.7513 20.7553 45.0827 20.9793 45.4653 21.138C45.8573 21.2967 46.282 21.376 46.7393 21.376ZM57.3074 23L53.4294 13.158H55.4874L58.4834 21.124H57.6854L60.7094 13.158H62.7394L58.8194 23H57.3074ZM65.2785 23V13.158H67.1825V23H65.2785ZM70.4523 23V13.158H72.3563V23H70.4523ZM71.8523 23V21.32H77.2983V23H71.8523ZM71.8523 18.786V17.162H76.8083V18.786H71.8523ZM71.8523 14.838V13.158H77.2283V14.838H71.8523ZM82.7341 23.14C81.9408 23.14 81.2595 23.0047 80.6901 22.734C80.1301 22.4633 79.6215 22.0573 79.1641 21.516L80.4241 20.256C80.7135 20.6387 81.0495 20.9373 81.4321 21.152C81.8148 21.3573 82.2815 21.46 82.8321 21.46C83.3268 21.46 83.7188 21.362 84.0081 21.166C84.3068 20.97 84.4561 20.6993 84.4561 20.354C84.4561 20.0553 84.3721 19.8127 84.2041 19.626C84.0361 19.4393 83.8121 19.2807 83.5321 19.15C83.2615 19.0193 82.9581 18.9027 82.6221 18.8C82.2955 18.688 81.9641 18.562 81.6281 18.422C81.3015 18.282 80.9981 18.1093 80.7181 17.904C80.4475 17.6893 80.2281 17.4187 80.0601 17.092C79.8921 16.756 79.8081 16.336 79.8081 15.832C79.8081 15.2347 79.9528 14.726 80.2421 14.306C80.5315 13.886 80.9281 13.564 81.4321 13.34C81.9361 13.116 82.5055 13.004 83.1401 13.004C83.8121 13.004 84.4188 13.13 84.9601 13.382C85.5015 13.634 85.9448 13.9607 86.2901 14.362L85.0301 15.622C84.7408 15.3047 84.4421 15.0713 84.1341 14.922C83.8355 14.7727 83.4948 14.698 83.1121 14.698C82.6735 14.698 82.3281 14.782 82.0761 14.95C81.8241 15.118 81.6981 15.3607 81.6981 15.678C81.6981 15.9487 81.7821 16.168 81.9501 16.336C82.1181 16.504 82.3375 16.6487 82.6081 16.77C82.8881 16.8913 83.1915 17.008 83.5181 17.12C83.8541 17.232 84.1855 17.358 84.5121 17.498C84.8481 17.638 85.1515 17.82 85.4221 18.044C85.7021 18.268 85.9261 18.5573 86.0941 18.912C86.2621 19.2573 86.3461 19.6867 86.3461 20.2C86.3461 21.1147 86.0241 21.8333 85.3801 22.356C84.7361 22.8787 83.8541 23.14 82.7341 23.14ZM90.4988 19.346V17.792H92.7808C93.0795 17.792 93.3502 17.7313 93.5928 17.61C93.8355 17.4887 94.0268 17.316 94.1668 17.092C94.3068 16.8587 94.3768 16.5787 94.3768 16.252C94.3768 15.9347 94.3068 15.6593 94.1668 15.426C94.0268 15.1927 93.8355 15.0153 93.5928 14.894C93.3502 14.7727 93.0795 14.712 92.7808 14.712H90.4988V13.158H92.9768C93.6022 13.158 94.1622 13.284 94.6568 13.536C95.1608 13.788 95.5575 14.1473 95.8468 14.614C96.1362 15.0713 96.2808 15.6173 96.2808 16.252C96.2808 16.8867 96.1362 17.4373 95.8468 17.904C95.5575 18.3613 95.1608 18.716 94.6568 18.968C94.1622 19.22 93.6022 19.346 92.9768 19.346H90.4988ZM89.0988 23V13.158H91.0028V23H89.0988ZM97.4138 23L101.376 13.158H102.93L106.878 23H104.848L101.796 14.922H102.496L99.4018 23H97.4138ZM99.5138 21.166V19.57H104.806V21.166H99.5138ZM113.294 23.14C112.575 23.14 111.908 23.014 111.292 22.762C110.676 22.5007 110.134 22.1413 109.668 21.684C109.21 21.2173 108.856 20.676 108.604 20.06C108.361 19.444 108.24 18.7813 108.24 18.072C108.24 17.3627 108.361 16.7 108.604 16.084C108.856 15.468 109.21 14.9313 109.668 14.474C110.134 14.0167 110.671 13.6573 111.278 13.396C111.894 13.1347 112.566 13.004 113.294 13.004C114.078 13.004 114.768 13.1347 115.366 13.396C115.963 13.648 116.49 13.998 116.948 14.446L115.66 15.734C115.389 15.4353 115.058 15.202 114.666 15.034C114.274 14.866 113.816 14.782 113.294 14.782C112.836 14.782 112.416 14.8613 112.034 15.02C111.66 15.1693 111.334 15.3933 111.054 15.692C110.774 15.9813 110.559 16.3313 110.41 16.742C110.26 17.1433 110.186 17.5867 110.186 18.072C110.186 18.5667 110.26 19.0147 110.41 19.416C110.559 19.8173 110.774 20.1673 111.054 20.466C111.334 20.7553 111.66 20.9793 112.034 21.138C112.416 21.2967 112.836 21.376 113.294 21.376C113.844 21.376 114.316 21.292 114.708 21.124C115.109 20.956 115.445 20.718 115.716 20.41L117.004 21.698C116.546 22.1553 116.014 22.51 115.408 22.762C114.801 23.014 114.096 23.14 113.294 23.14ZM119.577 23V13.158H121.481V23H119.577ZM120.977 23V21.32H126.423V23H120.977ZM120.977 18.786V17.162H125.933V18.786H120.977ZM120.977 14.838V13.158H126.353V14.838H120.977Z" fill="#FF9800"/>
</svg>
